PathFileType	4	(X/Y/Z)	C:\Users\Basilio\Documents\Thesis Gigler\squatting_fais\c3dfiles\039\SLS_pre_front2\markers_experimental.trc
DataRate	CameraRate	NumFrames	NumMarkers	Units	OrigDataRate	OrigDataStartFrame	OrigNumFrames
200.000000	200.000000	4	62	mm	200.000000	0	2102
Frame#	Time	FHD			LBHD			RBHD			C7			T10			CLAV			LSHO			LUUPA			LMUPA			LDUPA			LLEP			LMEP			LRAD			LUL			LRFIN			RSHO			RUPA1			RMUPA			RDUPA			RLEP			RMEP			RRAD			RUL			RUFIN			LASI			RASI			USACR			LSACR			RSACR			LTHI1			LTHI2			LTHI3			LTHI4			LLFC			LMFC			LTIB1			LTIB2			LTIB3			LTIB4			LLMAL			LMMAL			LHEE			LMT1			LMT2			LMT5			RTHI			RTHI2			RTHI3			RTHI4			RLFC			RMFC			RTIB1			RTIB2			RTIB3			RTIB4			RLMAL			RMMAL			RHEE			RMT1			RMT2			RMT5			*61			
		X1	Y1	Z1	X2	Y2	Z2	X3	Y3	Z3	X4	Y4	Z4	X5	Y5	Z5	X6	Y6	Z6	X7	Y7	Z7	X8	Y8	Z8	X9	Y9	Z9	X10	Y10	Z10	X11	Y11	Z11	X12	Y12	Z12	X13	Y13	Z13	X14	Y14	Z14	X15	Y15	Z15	X16	Y16	Z16	X17	Y17	Z17	X18	Y18	Z18	X19	Y19	Z19	X20	Y20	Z20	X21	Y21	Z21	X22	Y22	Z22	X23	Y23	Z23	X24	Y24	Z24	X25	Y25	Z25	X26	Y26	Z26	X27	Y27	Z27	X28	Y28	Z28	X29	Y29	Z29	X30	Y30	Z30	X31	Y31	Z31	X32	Y32	Z32	X33	Y33	Z33	X34	Y34	Z34	X35	Y35	Z35	X36	Y36	Z36	X37	Y37	Z37	X38	Y38	Z38	X39	Y39	Z39	X40	Y40	Z40	X41	Y41	Z41	X42	Y42	Z42	X43	Y43	Z43	X44	Y44	Z44	X45	Y45	Z45	X46	Y46	Z46	X47	Y47	Z47	X48	Y48	Z48	X49	Y49	Z49	X50	Y50	Z50	X51	Y51	Z51	X52	Y52	Z52	X53	Y53	Z53	X54	Y54	Z54	X55	Y55	Z55	X56	Y56	Z56	X57	Y57	Z57	X58	Y58	Z58	X59	Y59	Z59	X60	Y60	Z60	X61	Y61	Z61	X62	Y62	Z62	

1	0	-298.2808532714844	1807.709594726563	-787.9337158203127	-442.1918029785157	1766.548461914063	-920.9748535156252	-427.8413391113282	1774.574096679688	-780.8569946289065	-473.5593872070314	1588.932373046875	-862.4000244140627	-430.1633605957032	1282.329956054688	-869.4907226562502	-321.2992553710938	1550.821411132813	-858.897888183594	-389.1063537597657	1593.611328125	-1028.5634765625	-221.0070190429688	1534.560302734375	-1134.198120117188	-197.6063385009766	1573.851196289063	-1112.90576171875	-152.172607421875	1545.368530273438	-1140.369140625	-84.73995208740236	1555.732666015625	-1139.971923828125	-78.70078277587892	1488.175415039063	-1099.259887695313	185.9487609863282	1603.18701171875	-1031.616088867188	191.8510131835938	1603.783935546875	-1107.698120117188	263.5152893066407	1641.857421875	-1021.52392578125	-380.2036132812501	1592.634155273438	-690.2681884765626	-220.9463958740235	1514.319702148438	-587.1497192382814	-192.1669616699219	1548.815185546875	-608.6209716796876	-151.3288879394532	1511.476196289063	-582.8729858398439	-87.74463653564455	1525.436157226563	-589.5585937500001	-82.8109817504883	1458.680786132813	-631.9752197265626	197.6510467529297	1572.154174804688	-678.4810180664064	200.4641876220704	1561.1865234375	-602.4207763671876	282.8116149902344	1608.615966796875	-671.8782958984376	-233.2227783203126	1120.31005859375	-980.6617431640627	-235.0525817871094	1106.249267578125	-753.3518066406251	-422.2703857421876	1159.979736328125	-866.202087402344	-421.6272583007814	1128.452392578125	-895.7144165039065	-425.8793029785157	1126.17138671875	-837.6514282226565	-303.9465942382813	834.5284423828127	-1048.946044921875	-273.6593322753907	756.0540771484376	-1044.833984375	-226.9415130615235	758.2456054687501	-1034.659057617188	-303.3754882812501	704.3128051757814	-1034.568237304688	-313.2189636230469	581.2068481445314	-1028.7578125	-285.5507507324219	557.2909545898439	-915.095886230469	-275.8628540039063	427.5350036621095	-1003.633605957031	-346.0616760253907	394.8502807617189	-1045.188354492188	-306.6655273437501	385.0531616210939	-1027.942993164063	-316.9529724121094	306.2034606933594	-988.5267333984377	-400.5038146972657	149.6482849121094	-1014.563232421875	-382.4186096191407	147.7133178710938	-930.7456054687502	-473.6448364257814	118.216064453125	-975.4990234375002	-248.0814361572266	62.06251144409181	-955.1876220703127	-255.7128906250001	60.69896697998048	-998.9775390625002	-303.9098510742188	47.45163726806641	-1049.3291015625	-289.1385192871094	834.8043212890627	-688.5140991210939	-249.0873107910157	781.673278808594	-683.2526855468751	-217.4101257324219	785.4480590820315	-688.0396728515626	-275.3484802246094	700.1648559570314	-691.5293579101564	-312.2805480957032	560.1550292968751	-712.5633544921876	-268.0032043457032	544.1040649414064	-823.1912231445315	-287.3937072753907	345.0765686035157	-713.7072143554689	-376.7986450195313	285.3923950195313	-710.1247558593751	-331.5779418945313	273.7978820800782	-704.3606567382814	-314.6674804687501	222.9206542968751	-734.2048339843751	-387.7313537597657	131.0218048095703	-712.4449462890626	-352.4373474121094	146.037094116211	-794.1685791015627	-454.1718750000001	110.4819641113282	-768.733093261719	-231.4408416748047	57.1158790588379	-774.3958129882815	-236.3952636718751	56.32320785522462	-728.8173828125001	-293.3251342773438	38.17955398559571	-678.3738403320314	nan	nan	nan	
2	0.005	-298.3678283691407	1807.705932617188	-787.9087524414065	-442.318817138672	1766.542114257813	-920.9718017578127	-427.9303588867189	1774.54296875	-780.8673095703127	-473.5863342285157	1588.88037109375	-862.3728027343752	-430.1831359863282	1282.349243164063	-869.5863037109377	-321.1713562011719	1550.920532226563	-858.9401855468752	-389.1253662109376	1593.691040039063	-1028.568725585938	-220.9911804199219	1534.787719726563	-1134.227783203125	-197.6296844482422	1574.103515625	-1112.859252929688	-152.1745300292969	1545.634521484375	-1140.3193359375	-84.82492065429689	1556.031982421875	-1140.0185546875	-78.69232177734376	1488.488891601563	-1099.317749023438	185.8676300048828	1603.667846679688	-1031.742919921875	191.7325744628907	1604.178344726563	-1107.779296875	263.6010131835938	1642.054931640625	-1021.597290039063	-380.2151794433594	1592.629760742188	-690.3273925781251	-220.9914550781251	1514.616455078125	-587.1588745117189	-192.1994018554688	1549.076293945313	-608.7318725585939	-151.3370361328125	1511.770385742188	-582.9571533203126	-87.7960891723633	1525.76416015625	-589.6281127929689	-82.70854949951173	1459.109619140625	-632.1636962890626	197.7491760253907	1572.630737304688	-678.5129394531251	200.1770324707032	1561.509155273438	-602.7581787109376	282.8080444335938	1609.07666015625	-671.8742675781251	-233.0928344726563	1120.324829101563	-980.7780761718752	-235.029281616211	1106.24560546875	-753.4623413085939	-422.2781982421876	1159.934204101563	-866.3336181640627	-421.5875854492189	1128.448364257813	-895.8325805664065	-425.8704223632814	1126.206420898438	-837.8052368164065	-303.9025878906251	834.5397949218752	-1049.002807617188	-273.6434020996094	756.0186767578126	-1044.924560546875	-226.8842163085938	758.2415161132814	-1034.74560546875	-303.3753051757813	704.3002929687501	-1034.652954101563	-313.2186584472657	581.1863403320314	-1028.789306640625	-285.5351562500001	557.2459106445314	-915.154968261719	-275.8620910644532	427.5184020996095	-1003.638366699219	-345.9436950683594	394.7719726562501	-1045.208251953125	-306.5906677246094	385.0361633300782	-1027.999145507813	-316.9277343750001	306.2092285156251	-988.5606079101565	-400.5145874023439	149.62939453125	-1014.562805175781	-382.4462280273438	147.7418060302735	-930.7383422851565	-473.6080627441407	118.192855834961	-975.4881591796877	-248.0804901123047	62.0627784729004	-955.1875000000002	-255.7276000976563	60.66153717041017	-998.9800415039065	-303.9396972656251	47.44994354248048	-1049.364013671875	-289.1501159667969	834.822204589844	-688.6035156250001	-249.0442657470704	781.6728515625002	-683.3688354492189	-217.4040679931641	785.4160766601565	-688.1306762695314	-275.3660583496094	700.1667480468751	-691.6096191406251	-312.2427062988282	560.1712646484376	-712.6315917968751	-268.0512084960938	544.1206665039064	-823.2878417968752	-287.4242553710938	345.0643615722657	-713.7208862304689	-376.4467163085938	285.7214050292969	-709.9042968750001	-331.5728149414063	273.7999877929688	-704.3674316406251	-314.6623535156251	222.9096679687501	-734.2089233398439	-387.7292480468751	131.0886688232422	-712.4920654296876	-352.4476623535157	146.0658874511719	-794.188415527344	-454.1814575195314	110.5060195922852	-768.7310791015627	-231.4593200683594	57.08756637573244	-774.429382324219	-236.3949127197266	56.33506774902345	-728.8366699218751	-293.3208312988282	38.20467376708985	-678.3941650390626	nan	nan	nan	
3	0.01	-298.4729309082032	1807.701904296875	-787.8981933593752	-442.415740966797	1766.534057617188	-920.908874511719	-427.9649353027345	1774.486206054688	-780.8543090820315	-473.564178466797	1588.87060546875	-862.445007324219	-430.181854248047	1282.307373046875	-869.669372558594	-321.2391967773438	1551.0068359375	-858.9567871093752	-389.1826477050782	1593.783447265625	-1028.540283203125	-221.0220184326172	1535.022094726563	-1134.222534179688	-197.6779479980469	1574.30615234375	-1112.816528320313	-152.1571960449219	1545.927612304688	-1140.3291015625	-84.91152191162111	1556.389282226563	-1140.034301757813	-78.62728881835939	1488.850219726563	-1099.406127929688	185.8753204345703	1604.04052734375	-1031.818481445313	191.7024841308594	1604.587768554688	-1107.892700195313	263.6905517578126	1642.279296875	-1021.658264160156	-380.2091674804688	1592.670532226563	-690.4190673828126	-220.9453735351563	1514.894165039063	-587.2159423828126	-192.1786499023438	1549.332153320313	-608.8637695312501	-151.2517700195313	1512.052001953125	-583.0178833007814	-87.75831604003908	1526.093383789063	-589.7344970703126	-82.6166458129883	1459.53466796875	-632.3009643554689	197.717758178711	1573.10595703125	-678.5228881835939	200.1754302978516	1562.074951171875	-602.8466796875001	282.7908630371094	1609.516479492188	-671.8516845703126	-232.9767761230469	1120.392456054688	-980.946960449219	-235.0219268798829	1106.266479492188	-753.5995483398439	-422.1860351562501	1159.915161132813	-866.4840087890627	-421.6040039062501	1128.467163085938	-895.9295654296877	-425.8204956054689	1126.204711914063	-837.956970214844	-303.9139709472657	834.5278320312502	-1049.048095703125	-273.6024475097657	756.0101928710939	-1045.006469726563	-226.8785247802735	758.2224731445314	-1034.837158203125	-303.3284301757813	704.2703247070314	-1034.717407226563	-313.1732482910157	581.1575927734376	-1028.8662109375	-285.4721374511719	557.3066406250001	-915.2266845703127	-275.9071960449219	427.4967041015626	-1003.717041015625	-345.9654235839844	394.7774963378907	-1045.233764648438	-306.5563049316407	385.0325622558595	-1028.048706054688	-316.9223937988282	306.1937255859376	-988.5628662109377	-400.4924621582032	149.6655578613282	-1014.582092285156	-382.4501342773438	147.7225646972657	-930.7774658203127	-473.6573181152345	118.198844909668	-975.4995727539065	-248.1137237548829	62.06367111206056	-955.176696777344	-255.7276000976563	60.66153717041017	-998.9800415039065	-303.9080505371094	47.4508399963379	-1049.349975585938	-289.1047973632813	834.8121337890627	-688.6672363281251	-249.0408630371094	781.7088623046877	-683.4293212890626	-217.4396972656251	785.4591064453127	-688.1928710937501	-275.3634338378907	700.1720581054689	-691.6591186523439	-312.2496948242188	560.1924438476564	-712.6722412109376	-267.9490966796876	544.1049804687501	-823.3228759765627	-287.4320068359376	345.0663452148438	-713.7478027343751	-376.4441223144532	285.7434692382813	-709.9290161132814	-331.5899047851563	273.8130493164063	-704.4132690429689	-314.6723022460938	222.9357299804688	-734.2087402343751	-387.7129516601564	131.0650634765625	-712.4924926757814	-352.4607238769532	146.0523376464844	-794.222595214844	-454.1625061035157	110.5080032348633	-768.7623291015627	-231.4677276611329	57.09600830078126	-774.3760375976565	-236.3893432617188	56.34096908569337	-728.8016967773439	-293.3236999511719	38.20331573486329	-678.3884887695314	nan	nan	nan	
4	0.015	-298.5773010253907	1807.722412109375	-787.8885498046877	-442.3843078613282	1766.53173828125	-920.9004516601565	-427.973846435547	1774.43408203125	-780.8104248046877	-473.6220092773439	1588.85791015625	-862.4556884765627	-430.1243286132814	1282.305419921875	-869.7419433593752	-321.2032165527344	1551.078735351563	-858.982116699219	-389.1943359375001	1593.82373046875	-1028.514404296875	-221.0423431396485	1535.277709960938	-1134.258666992188	-197.7012023925782	1574.558349609375	-1112.797485351563	-152.1431121826172	1546.1787109375	-1140.328857421875	-84.93234252929689	1556.700927734375	-1140.025634765625	-78.62191772460939	1489.113037109375	-1099.458984375	185.93603515625	1604.249877929688	-1031.90869140625	191.7247009277344	1605.058349609375	-1107.957763671875	263.7970275878907	1642.512573242188	-1021.749816894531	-380.2378234863282	1592.689575195313	-690.4806518554689	-220.9395751953126	1515.18310546875	-587.2944335937501	-192.1380310058594	1549.608520507813	-608.9995117187501	-151.2103271484375	1512.296630859375	-583.0881958007814	-87.71611785888673	1526.436157226563	-589.8366699218751	-82.5529022216797	1459.844116210938	-632.3858642578126	197.7251892089844	1573.618041992188	-678.5951538085939	200.4936523437501	1562.79736328125	-602.5170288085939	282.8558044433594	1610.026733398438	-671.7966308593751	-232.9698028564454	1120.33740234375	-981.0548095703127	-234.9808959960938	1106.290649414063	-753.7045288085939	-422.1453552246095	1159.911499023438	-866.6203613281252	-421.560760498047	1128.454711914063	-896.0299072265627	-425.7664794921876	1126.20263671875	-838.0908203125002	-303.8954467773438	834.5239257812502	-1049.130249023438	-273.5695495605469	755.9877929687501	-1045.077270507813	-226.8670043945313	758.2361450195314	-1034.934448242188	-303.2995910644532	704.2664794921876	-1034.788330078125	-313.1351013183594	581.1529541015626	-1028.897827148438	-285.4850463867188	557.2579345703126	-915.2479248046877	-275.7880554199219	427.5079650878907	-1003.736022949219	-345.9758605957032	394.7357177734376	-1045.268676757813	-306.6020507812501	385.0160217285157	-1028.088134765625	-316.8912658691407	306.1757812500001	-988.603698730469	-400.5116271972657	149.6267547607422	-1014.578491210938	-382.4247436523438	147.7342529296875	-930.769470214844	-473.6289367675782	118.1850967407227	-975.5247192382815	-248.0557098388672	62.06156539916994	-955.2117919921877	-255.7276000976563	60.66153717041017	-998.9800415039065	-303.9996337890626	47.43620681762696	-1049.366455078125	-289.1036682128907	834.8166503906252	-688.7821044921876	-249.0524139404297	781.730163574219	-683.5013427734376	-217.4174499511719	785.4631347656252	-688.2725830078126	-275.3467407226563	700.1762695312501	-691.7039794921876	-312.2632141113282	560.2138671875001	-712.7692260742189	-267.9710388183594	544.1233520507814	-823.3792114257815	-287.4147033691407	345.0941772460938	-713.8656616210939	-376.4410400390626	285.7413635253907	-709.9564819335939	-331.5910339355469	273.8110656738282	-704.4157104492189	-314.6722717285157	222.9341735839844	-734.2330322265626	-387.7198486328126	131.0747375488282	-712.4899291992189	-352.4776000976563	146.0371704101563	-794.2301025390627	-454.164520263672	110.4982223510742	-768.7502441406252	-231.4674987792969	57.06004333496095	-774.4096679687502	-236.3944854736329	56.33525466918947	-728.8130493164064	-293.3249511718751	38.20465850830079	-678.3884277343751	nan	nan	nan	
